<svg width="22" height="22" viewBox="0 0 22 22" fill="none" xmlns="http://www.w3.org/2000/svg">
<path fill-rule="evenodd" clip-rule="evenodd" d="M2.49692 15.7623C1.70608 14.354 1.25 12.7312 1.25 11C1.25 5.61475 5.61475 1.25 11 1.25C16.3853 1.25 20.75 5.61475 20.75 11C20.75 16.3853 16.3853 20.75 11 20.75C9.26883 20.75 7.646 20.2939 6.23767 19.5031L1.25 20.75L2.49692 15.7623Z" fill="white" stroke="white" stroke-width="1.5" stroke-linecap="round" stroke-linejoin="round"/>
<path d="M10.8083 11.3499C10.9144 11.2438 11.0856 11.2438 11.1918 11.3499C11.2979 11.4561 11.2979 11.6273 11.1918 11.7334C11.0856 11.8396 10.9144 11.8396 10.8083 11.7334C10.7032 11.6273 10.7032 11.4561 10.8083 11.3499" stroke="#24786D" stroke-width="1.5" stroke-linecap="round" stroke-linejoin="round"/>
<path d="M6.47488 11.3499C6.58104 11.2438 6.75221 11.2438 6.85838 11.3499C6.96454 11.4561 6.96454 11.6273 6.85838 11.7334C6.75221 11.8396 6.58104 11.8396 6.47488 11.7334C6.36979 11.6273 6.36979 11.4561 6.47488 11.3499" stroke="#24786D" stroke-width="1.5" stroke-linecap="round" stroke-linejoin="round"/>
<path d="M15.1416 11.3499C15.2478 11.2438 15.419 11.2438 15.5251 11.3499C15.6313 11.4561 15.6313 11.6273 15.5251 11.7334C15.419 11.8396 15.2478 11.8396 15.1416 11.7334C15.0365 11.6273 15.0365 11.4561 15.1416 11.3499" stroke="#24786D" stroke-width="1.5" stroke-linecap="round" stroke-linejoin="round"/>
</svg>
